{
  "accessors": [
    {
      "bufferView": 0,
      "byteOffset": 0,
      "componentType": 5123,
      "count": 36,
      "max": [
        35
      ],
      "min": [
        0
      ],
      "type": "SCALAR"
    },
    {
      "bufferView": 1,
      "byteOffset": 0,
      "componentType": 5126,
      "count": 36,
      "max": [
        1.0,
        1.0,
        1.000001
      ],
      "min": [
        -1.0,
        -1.0,
        -1.0
      ],
      "type": "VEC3"
    },
    {
      "bufferView": 2,
      "byteOffset": 0,
      "componentType": 5126,
      "count": 36,
      "max": [
        1.0,
        1.0,
        1.0
      ],
      "min": [
        -1.0,
        -1.0,
        -1.0
      ],
      "type": "VEC3"
    },
    {
      "bufferView": 3,
      "byteOffset": 0,
      "componentType": 5126,
      "count": 36,
      "max": [
        1.0,
        -0.0,
        -0.0,
        1.0
      ],
      "min": [
        0.0,
        -0.0,
        -1.0,
        -1.0
      ],
      "type": "VEC4"
    },
    {
      "bufferView": 4,
      "byteOffset": 0,
      "componentType": 5126,
      "count": 36,
      "max": [
        1.0,
        1.0
      ],
      "min": [
        -1.0,
        -1.0
      ],
      "type": "VEC2"
    }
  ],
  "asset": {
    "generator": "VKTS glTF 2.0 exporter",
    "version": "2.0"
  },
  "bufferViews": [
    {
      "buffer": 0,
      "byteLength": 72,
      "byteOffset": 0,
      "target": 34963
    },
    {
      "buffer": 0,
      "byteLength": 432,
      "byteOffset": 72,
      "target": 34962
    },
    {
      "buffer": 0,
      "byteLength": 432,
      "byteOffset": 504,
      "target": 34962
    },
    {
      "buffer": 0,
      "byteLength": 576,
      "byteOffset": 936,
      "target": 34962
    },
    {
      "buffer": 0,
      "byteLength": 288,
      "byteOffset": 1512,
      "target": 34962
    }
  ],
  "buffers": [
    {
      "byteLength": 1800,
      "uri": "çûbè.bin"
    }
  ],
  "extensionsRequired": [
    "KHR_materials_sheen"
  ],
  "extensionsUsed": [
    "KHR_materials_sheen"
  ],
  "images": [
    {
      "uri": "../textures/ŔĜBŖĀ.png"
    },
    {
      "uri": "../textures/ŔŖȒȐ.png"
    },
    {
      "uri": "../textures/ĜƓGǦ.png"
    },
    {
      "uri": "../textures/ŔĜBŖ.png"
    },
    {
      "uri": "../textures/₁₀₀₁.png"
    }
  ],
  "materials": [
    {
      "name": "Default",
      "pbrMetallicRoughness": {
        "baseColorFactor": [
          0.99,
          0.99,
          0.99,
          0.99
        ],
        "baseColorTexture": {
          "index": 2
        },
        "metallicFactor": 0.5,
        "roughnessFactor": 0.25,
        "metallicRoughnessTexture": {
          "index": 2
        }
      },
      "normalTexture": {
        "index": 1
      },
      "occlusionTexture": {
        "index": 2
      },
      "emissiveFactor": [
        0.75,
        0.75,
        0.75
      ],
      "emissiveTexture": {
        "index": 0
      },
      "extensions": {
        "KHR_materials_sheen": {
          "sheenColorFactor": [
            0.1,
            0.2,
            0.3
          ],
          "sheenColorTexture": {
            "index": 3
          },
          "sheenRoughnessFactor": 0.4,
          "sheenRoughnessTexture": {
            "index": 4
          }
        }
      }
    }
  ],
  "meshes": [
    {
      "name": "Child11",
      "primitives": [
        {
          "attributes": {
            "NORMAL": 2,
            "POSITION": 1,
            "TANGENT": 3,
            "TEXCOORD_0": 4
          },
          "indices": 0,
          "material": 0,
          "mode": 4
        }
      ]
    },
    {
      "name": "Child1",
      "primitives": [
        {
          "attributes": {
            "NORMAL": 2,
            "POSITION": 1,
            "TANGENT": 3,
            "TEXCOORD_0": 4
          },
          "indices": 0,
          "material": 0,
          "mode": 4
        }
      ]
    },
    {
      "name": "Root",
      "primitives": [
        {
          "attributes": {
            "NORMAL": 2,
            "POSITION": 1,
            "TANGENT": 3,
            "TEXCOORD_0": 4
          },
          "indices": 0,
          "material": 0,
          "mode": 0
        }
      ]
    }
  ],
  "nodes": [
    {
      "mesh": 0,
      "name": "Child11",
      "translation" : [
          1.0,
          1.0,
          1.0
      ],
      "rotation" : [
          0.0,
          0.0,
          0.7071068286895752,
          0.7071068286895752
      ],
      "scale" : [
          0.5,
          0.5,
          0.5
      ]
    },
    {
      "children" : [
          0
      ],
      "mesh": 1,
      "name": "Child1",
      "translation" : [
          10.0,
          10.0,
          10.0
      ],
      "rotation" : [
          0.0,
          0.7071068286895752,
          0.0,
          0.7071068286895752
      ],
      "scale" : [
          0.1,
          0.1,
          0.1
      ]
    },
    {
      "children" : [
          1
      ],
      "mesh": 2,
      "name": "Root",
      "translation" : [
          100.0,
          100.0,
          100.0
      ],
      "rotation" : [
          0.7071068286895752,
          0.0,
          0.0,
          0.7071068286895752
      ],
      "scale" : [
          2.0,
          2.0,
          2.0
      ]
    }
  ],
  "samplers": [
    {}
  ],
  "scene": 0,
  "scenes": [
    {
      "nodes": [
        2
      ]
    }
  ],
  "textures": [
    {
      "sampler": 0,
      "source": 1
    },
    {
      "sampler": 0,
      "source": 2
    },
    {
      "sampler": 0,
      "source": 0
    },
    {
      "sampler": 0,
      "source": 3
    },
    {
      "sampler": 0,
      "source": 4
    }
  ]
}
